<svg xmlns="http://www.w3.org/2000/svg" shape-rendering="geometricPrecision" text-rendering="geometricPrecision" image-rendering="optimizeQuality" fill-rule="evenodd" clip-rule="evenodd" viewBox="0 0 464 511.863"><path fill="#666" fill-rule="nonzero" d="M231.822 132.778c1.2-5.152 6.352-8.357 11.505-7.158 5.153 1.2 8.357 6.352 7.158 11.505l-20.773 88.972c-1.199 5.153-6.352 8.358-11.504 7.158-5.153-1.199-8.358-6.352-7.158-11.505l20.772-88.972zm-32.519 71.317c3.972 3.477 4.377 9.521.9 13.493-3.478 3.973-9.521 4.377-13.494.9l-36.354-31.854c-3.972-3.477-4.377-9.521-.9-13.493.295-.336.606-.644.933-.927l36.321-31.826c3.973-3.478 10.016-3.073 13.494.899 3.477 3.973 3.072 10.016-.9 13.494l-28.14 24.656 28.14 24.658zm77.99 14.393c-3.972 3.477-10.016 3.073-13.493-.9-3.478-3.972-3.073-10.016.899-13.493l28.14-24.658-28.14-24.656c-3.972-3.478-4.377-9.521-.899-13.494 3.477-3.972 9.521-4.377 13.493-.899l36.318 31.826c.328.283.639.591.933.927 3.477 3.972 3.073 10.016-.899 13.493l-36.352 31.854z"/><path fill="#1A1A1A" fill-rule="nonzero" d="M90.232 0h230.505a7.998 7.998 0 016.39 3.183l96.876 104.809a7.937 7.937 0 012.118 5.411h.041v346.065c0 28.566-23.829 52.395-52.395 52.395H90.232c-28.711 0-52.395-23.697-52.395-52.395V52.395C37.837 23.601 61.438 0 90.232 0zm240.235 30.272V81.11c.913 12.412 5.265 22.192 12.97 28.775 7.822 6.682 19.34 10.418 34.49 10.676v-.03h32.219v-4.052l-79.679-86.207zm79.679 106.253h-32.219v-.033h-.124c-19.111-.302-34.068-5.373-44.736-14.486-11.073-9.458-17.282-22.969-18.52-39.763l-.075-1.098V16.016H90.232c-20.032 0-36.378 16.346-36.378 36.379v407.073c0 19.897 16.467 36.378 36.378 36.378h283.535c19.804 0 36.379-16.574 36.379-36.378V136.525z"/><path fill="red" d="M21.123 259.247h421.753c11.618 0 21.124 9.525 21.124 21.124v163.863c0 11.599-9.526 21.124-21.124 21.124H21.123C9.526 465.358 0 455.853 0 444.234V280.371c0-11.619 9.506-21.124 21.123-21.124z"/><path fill="#fff" fill-rule="nonzero" d="M178.332 380.44l2.039 22.828c-5.708 2.355-12.864 3.532-21.469 3.532s-15.51-.905-20.72-2.718c-5.208-1.81-9.307-4.665-12.294-8.558-2.99-3.895-5.073-8.47-6.25-13.725-1.178-5.251-1.767-11.73-1.767-19.427 0-7.7.589-14.2 1.767-19.499 1.177-5.298 3.26-9.895 6.25-13.791 5.796-7.518 16.44-11.276 31.928-11.276 3.441 0 7.496.341 12.159 1.018 4.666.68 8.132 1.518 10.396 2.514l-4.077 20.789c-5.887-1.268-11.276-1.903-16.167-1.903-4.892 0-8.289.454-10.19 1.359-1.904.905-2.856 2.718-2.856 5.436v35.597a53.35 53.35 0 0010.735 1.087c7.7 0 14.539-1.087 20.516-3.263zm58.426 3.805h-17.664v20.517h-27.175v-84.917h42.8c19.474 0 29.213 10.462 29.213 31.386 0 11.501-2.537 20.016-7.609 25.542-1.904 2.083-4.528 3.849-7.882 5.299-3.351 1.449-7.246 2.173-11.683 2.173zm-17.664-42.662v20.924h6.25c3.259 0 5.639-.339 7.133-1.018 1.494-.679 2.242-2.242 2.242-4.688v-9.512c0-2.446-.748-4.009-2.242-4.685-1.494-.68-3.874-1.021-7.133-1.021h-6.25zm99.863 42.662h-17.664v20.517h-27.172v-84.917h42.797c19.474 0 29.213 10.462 29.213 31.386 0 11.501-2.537 20.016-7.609 25.542-1.904 2.083-4.529 3.849-7.882 5.299-3.351 1.449-7.246 2.173-11.683 2.173zm-17.664-42.662v20.924h6.25c3.26 0 5.64-.339 7.133-1.018 1.494-.679 2.242-2.242 2.242-4.688v-9.512c0-2.446-.748-4.009-2.242-4.685-1.493-.68-3.873-1.021-7.133-1.021h-6.25z"/></svg>