<svg xmlns="http://www.w3.org/2000/svg" shape-rendering="geometricPrecision" text-rendering="geometricPrecision" image-rendering="optimizeQuality" fill-rule="evenodd" clip-rule="evenodd" viewBox="0 0 464 511.863"><path fill="#666" fill-rule="nonzero" d="M231.822 132.778c1.2-5.152 6.352-8.357 11.505-7.158 5.153 1.2 8.357 6.352 7.158 11.505l-20.773 88.972c-1.199 5.153-6.352 8.358-11.504 7.158-5.153-1.199-8.358-6.352-7.158-11.505l20.772-88.972zm-32.519 71.317c3.972 3.477 4.377 9.521.9 13.493-3.478 3.973-9.521 4.377-13.494.9l-36.354-31.854c-3.972-3.477-4.377-9.521-.9-13.493.295-.336.606-.644.933-.927l36.321-31.826c3.973-3.478 10.016-3.073 13.494.899 3.477 3.973 3.072 10.016-.9 13.494l-28.14 24.656 28.14 24.658zm77.99 14.393c-3.972 3.477-10.016 3.073-13.493-.9-3.478-3.972-3.073-10.016.899-13.493l28.14-24.658-28.14-24.656c-3.972-3.478-4.377-9.521-.899-13.494 3.477-3.972 9.521-4.377 13.493-.899l36.318 31.826c.328.283.639.591.933.927 3.477 3.972 3.073 10.016-.899 13.493l-36.352 31.854z"/><path fill="#1A1A1A" fill-rule="nonzero" d="M90.232 0h230.505a7.998 7.998 0 016.39 3.183l96.876 104.809a7.937 7.937 0 012.118 5.411h.041v346.065c0 14.28-5.956 27.377-15.469 36.893l-.033.033c-9.515 9.513-22.613 15.469-36.893 15.469H90.232c-14.327 0-27.463-5.918-36.984-15.439l-.448-.487c-9.219-9.441-14.963-22.327-14.963-36.469V52.395c0-14.396 5.893-27.485 15.384-36.979l.033-.033C62.748 5.892 75.837 0 90.232 0zm240.235 30.272V81.11c.913 12.412 5.265 22.192 12.97 28.775 7.822 6.682 19.34 10.418 34.49 10.676v-.03h32.219v-4.052l-79.679-86.207zm79.679 106.253h-32.219v-.033h-.124c-19.111-.302-34.068-5.373-44.736-14.486-11.073-9.458-17.282-22.969-18.52-39.763l-.075-1.098V16.016H90.232c-10.01 0-19.108 4.091-25.705 10.674-6.583 6.596-10.673 15.694-10.673 25.705v407.073c0 9.782 3.961 18.706 10.324 25.264l.393.369c6.628 6.627 15.744 10.745 25.661 10.745h283.535c9.895 0 18.993-4.145 25.62-10.758 6.613-6.628 10.759-15.725 10.759-25.62V136.525z"/><path fill="red" d="M21.123 259.247h421.753c11.618 0 21.124 9.525 21.124 21.124v163.863c0 11.599-9.526 21.124-21.124 21.124H21.123C9.526 465.358 0 455.853 0 444.234V280.371c0-11.619 9.506-21.124 21.123-21.124z"/><path fill="#fff" fill-rule="nonzero" d="M182.14 380.44l2.038 22.828c-5.708 2.355-12.863 3.532-21.468 3.532-8.606 0-15.51-.905-20.721-2.718-5.207-1.81-9.306-4.665-12.294-8.558-2.99-3.895-5.073-8.47-6.25-13.725-1.178-5.251-1.766-11.73-1.766-19.427 0-7.7.588-14.2 1.766-19.499 1.177-5.298 3.26-9.895 6.25-13.791 5.796-7.518 16.44-11.276 31.928-11.276 3.441 0 7.496.341 12.159 1.018 4.666.68 8.132 1.518 10.396 2.514l-4.077 20.789c-5.887-1.268-11.276-1.903-16.167-1.903-4.891 0-8.289.454-10.19 1.359-1.904.905-2.855 2.718-2.855 5.436v35.597a53.347 53.347 0 0010.734 1.087c7.7 0 14.539-1.087 20.517-3.263zm9.171 22.828l3.805-22.418c8.333 2.083 15.826 3.123 22.484 3.123 6.66 0 12.024-.27 16.101-.815v-6.792l-12.228-1.087c-11.051-.998-18.635-3.647-22.759-7.95-4.121-4.302-6.181-10.665-6.181-19.089 0-11.593 2.514-19.565 7.54-23.911 5.029-4.35 13.565-6.523 25.612-6.523 12.046 0 22.916 1.133 32.61 3.398l-3.398 21.738c-8.423-1.359-15.171-2.039-20.244-2.039s-9.375.226-12.908.68v6.657l9.783.952c11.865 1.178 20.063 4.008 24.591 8.492 4.531 4.484 6.795 10.71 6.795 18.682 0 5.706-.771 10.528-2.311 14.47-1.541 3.94-3.373 6.927-5.502 8.966-2.129 2.038-5.141 3.601-9.037 4.687-3.893 1.087-7.312 1.744-10.256 1.97-2.943.229-6.863.341-11.755.341-11.773 0-22.687-1.177-32.742-3.532zm79.413 0l3.804-22.418c8.333 2.083 15.824 3.123 22.481 3.123 6.66 0 12.025-.27 16.102-.815v-6.792l-12.228-1.087c-11.051-.998-18.633-3.647-22.756-7.95-4.121-4.302-6.182-10.665-6.182-19.089 0-11.593 2.515-19.565 7.541-23.911 5.029-4.35 13.562-6.523 25.609-6.523 12.046 0 22.915 1.133 32.61 3.398l-3.398 21.738c-8.423-1.359-15.171-2.039-20.244-2.039s-9.376.226-12.908.68v6.657l9.783.952c11.865 1.178 20.062 4.008 24.591 8.492 4.53 4.484 6.795 10.71 6.795 18.682 0 5.706-.771 10.528-2.311 14.47-1.541 3.94-3.373 6.927-5.502 8.966-2.129 2.038-5.142 3.601-9.037 4.687-3.893 1.087-7.313 1.744-10.256 1.97-2.943.229-6.864.341-11.755.341-11.774 0-22.684-1.177-32.739-3.532z"/></svg>