<svg xmlns="http://www.w3.org/2000/svg" shape-rendering="geometricPrecision" text-rendering="geometricPrecision" image-rendering="optimizeQuality" fill-rule="evenodd" clip-rule="evenodd" viewBox="0 0 464 511.863"><path fill="#666" fill-rule="nonzero" d="M231.822 132.778c1.2-5.152 6.352-8.357 11.505-7.158 5.153 1.2 8.357 6.352 7.158 11.505l-20.773 88.972c-1.199 5.153-6.352 8.358-11.504 7.158-5.153-1.199-8.358-6.352-7.158-11.505l20.772-88.972zm-32.519 71.317c3.972 3.477 4.377 9.521.9 13.493-3.478 3.973-9.521 4.377-13.494.9l-36.354-31.854c-3.972-3.477-4.377-9.521-.9-13.493.295-.336.606-.644.933-.927l36.321-31.826c3.973-3.478 10.016-3.073 13.494.899 3.477 3.973 3.072 10.016-.9 13.494l-28.14 24.656 28.14 24.658zm77.99 14.393c-3.972 3.477-10.016 3.073-13.493-.9-3.478-3.972-3.073-10.016.899-13.493l28.14-24.658-28.14-24.656c-3.972-3.478-4.377-9.521-.899-13.494 3.477-3.972 9.521-4.377 13.493-.899l36.318 31.826c.328.283.639.591.933.927 3.477 3.972 3.073 10.016-.899 13.493l-36.352 31.854z"/><path fill="#1A1A1A" fill-rule="nonzero" d="M90.232 0h230.505a7.998 7.998 0 016.39 3.183l96.876 104.809a7.937 7.937 0 012.118 5.411h.041v346.065c0 14.28-5.956 27.377-15.469 36.893l-.033.033c-9.515 9.513-22.613 15.469-36.893 15.469H90.232c-14.327 0-27.463-5.918-36.984-15.439l-.448-.487c-9.219-9.441-14.963-22.327-14.963-36.469V52.395c0-14.396 5.893-27.485 15.384-36.979l.033-.033C62.748 5.892 75.837 0 90.232 0zm240.235 30.272V81.11c.913 12.412 5.265 22.192 12.97 28.775 7.822 6.682 19.34 10.418 34.49 10.676v-.03h32.219v-4.052l-79.679-86.207zm79.679 106.253h-32.219v-.033h-.124c-19.111-.302-34.068-5.373-44.736-14.486-11.073-9.458-17.282-22.969-18.52-39.763l-.075-1.098V16.016H90.232c-10.01 0-19.108 4.091-25.705 10.674-6.583 6.596-10.673 15.694-10.673 25.705v407.073c0 9.782 3.961 18.706 10.324 25.264l.393.369c6.628 6.627 15.744 10.745 25.661 10.745h283.535c9.895 0 18.993-4.145 25.62-10.758 6.613-6.628 10.759-15.725 10.759-25.62V136.525z"/><path fill="red" d="M21.123 259.247h421.753c11.618 0 21.124 9.525 21.124 21.124v163.863c0 11.599-9.526 21.124-21.124 21.124H21.123C9.526 465.358 0 455.853 0 444.234V280.371c0-11.619 9.506-21.124 21.123-21.124z"/><path fill="#fff" fill-rule="nonzero" d="M119.165 404.762v-30.027H98.782v30.027H71.609v-84.917h27.173v30.026h20.383v-30.026h27.171v84.917h-27.171zm101.221-63.179h-19.702v63.179H173.51v-63.179h-19.7v-21.738h66.576v21.738zm32.473 63.179h-28.396l5.164-84.917h35.46l10.597 43.206h.952l10.594-43.206h35.463l5.163 84.917h-28.398l-1.629-41.169h-.952l-10.327 41.169h-20.783l-10.462-41.169h-.815l-1.631 41.169zm139.532 0h-54.348v-84.917h27.174v63.178h27.174v21.739z"/></svg>