<svg xmlns="http://www.w3.org/2000/svg" shape-rendering="geometricPrecision" text-rendering="geometricPrecision" image-rendering="optimizeQuality" fill-rule="evenodd" clip-rule="evenodd" viewBox="0 0 464 511.863"><path fill="#666" fill-rule="nonzero" d="M231.822 132.778c1.2-5.152 6.352-8.357 11.505-7.158 5.153 1.2 8.357 6.352 7.158 11.505l-20.773 88.972c-1.199 5.153-6.352 8.358-11.504 7.158-5.153-1.199-8.358-6.352-7.158-11.505l20.772-88.972zm-32.519 71.317c3.972 3.477 4.377 9.521.9 13.493-3.478 3.973-9.521 4.377-13.494.9l-36.354-31.854c-3.972-3.477-4.377-9.521-.9-13.493.295-.336.606-.644.933-.927l36.321-31.826c3.973-3.478 10.016-3.073 13.494.899 3.477 3.973 3.072 10.016-.9 13.494l-28.14 24.656 28.14 24.658zm77.99 14.393c-3.972 3.477-10.016 3.073-13.493-.9-3.478-3.972-3.073-10.016.899-13.493l28.14-24.658-28.14-24.656c-3.972-3.478-4.377-9.521-.899-13.494 3.477-3.972 9.521-4.377 13.493-.899l36.318 31.826c.328.283.639.591.933.927 3.477 3.972 3.073 10.016-.899 13.493l-36.352 31.854z"/><path fill-rule="nonzero" d="M90.232 0h230.505a7.998 7.998 0 016.39 3.183l96.876 104.809a7.937 7.937 0 012.118 5.411h.041v346.065c0 28.566-23.829 52.395-52.395 52.395H90.232c-28.711 0-52.395-23.697-52.395-52.395V52.395C37.837 23.601 61.438 0 90.232 0zm240.235 30.272V81.11c.913 12.412 5.265 22.192 12.97 28.775 7.822 6.682 19.34 10.418 34.49 10.676v-.03h32.219v-4.052l-79.679-86.207zm79.679 106.253h-32.219v-.033h-.124c-19.111-.302-34.068-5.373-44.736-14.486-11.073-9.458-17.282-22.969-18.52-39.763l-.075-1.098V16.016H90.232c-20.032 0-36.378 16.346-36.378 36.379v407.073c0 19.897 16.467 36.378 36.378 36.378h283.535c19.804 0 36.379-16.574 36.379-36.378V136.525z"/><path fill="red" d="M21.123 259.247h421.753c11.618 0 21.124 9.525 21.124 21.124v163.863c0 11.599-9.526 21.124-21.124 21.124H21.123C9.526 465.358 0 455.853 0 444.234V280.371c0-11.619 9.506-21.124 21.123-21.124z"/><path fill="#fff" fill-rule="nonzero" d="M52.214 403.268l3.805-22.418c8.332 2.083 15.826 3.123 22.483 3.123 6.66 0 12.025-.27 16.102-.815v-6.792l-12.228-1.087c-11.051-.998-18.635-3.647-22.759-7.95-4.121-4.302-6.182-10.665-6.182-19.089 0-11.593 2.515-19.565 7.541-23.911 5.029-4.35 13.565-6.523 25.611-6.523 12.047 0 22.916 1.133 32.61 3.398l-3.397 21.738c-8.423-1.359-15.172-2.039-20.244-2.039-5.073 0-9.376.226-12.908.68v6.657l9.782.952c11.865 1.178 20.063 4.008 24.591 8.492 4.531 4.484 6.795 10.71 6.795 18.682 0 5.706-.77 10.528-2.31 14.47-1.541 3.94-3.373 6.927-5.503 8.966-2.129 2.038-5.141 3.601-9.036 4.687-3.893 1.087-7.312 1.744-10.256 1.97-2.943.229-6.864.341-11.755.341-11.774 0-22.687-1.177-32.742-3.532zm159.166-83.423h28.395l-13.314 84.917H191l-6.25-31.249h-1.631l-6.113 31.249h-35.462l-13.315-84.917h28.395l6.388 47.418h.815l9.782-47.418h20.786l9.648 47.418h.814l6.523-47.418zm36.205 84.917v-84.917h27.175v84.917h-27.175zm92.048-31.521h-23.097v31.521h-27.174v-84.917h50.271v21.738h-23.097v11.414h23.097v20.244zm72.152-31.658h-19.702v63.179h-27.174v-63.179h-19.7v-21.738h66.576v21.738z"/></svg>